<svg width="1201" height="90" viewBox="0 0 1201 90" fill="none" xmlns="http://www.w3.org/2000/svg">
<path d="M54.5454 39.7472C32.1268 34.1826 8.84069 56.971 0 69.0607V0H1201V55.1492C1200.83 58.4615 1198.9 65.086 1192.49 65.086C1184.49 65.086 1176.48 29.8104 1161.47 29.8104C1146.45 29.8104 1154.96 65.086 1128.94 69.0607C1102.92 73.0355 1115.93 29.8104 1094.41 29.8104C1072.89 29.8104 1090.91 87.4438 1062.88 89.928C1034.86 92.4122 1047.87 29.8104 1019.35 29.8104C990.825 29.8104 998.832 65.086 975.312 65.086C951.792 65.086 966.805 23.3515 940.783 23.3515C914.762 23.3515 918.265 65.086 888.24 65.086C858.215 65.086 890.742 29.8104 863.219 29.8104C835.696 29.8104 855.712 65.086 826.188 65.086C796.663 65.086 821.684 29.8104 800.667 29.8104C779.649 29.8104 793.16 65.086 767.639 65.086C742.118 65.086 763.135 29.8104 740.617 29.8104C718.098 29.8104 736.113 65.086 714.095 65.086C692.076 65.086 708.59 29.8104 684.57 29.8104C660.55 29.8104 671.059 69.0607 649.541 69.0607C628.023 69.0607 648.54 39.7472 625.521 29.8104C602.502 19.8735 619.015 65.086 592.493 65.086C565.971 65.086 580.984 29.8104 556.463 29.8104C531.943 29.8104 551.96 65.086 523.436 65.086C494.912 65.086 522.935 29.8104 490.408 29.8104C457.881 29.8104 471.893 65.086 435.362 69.0607C398.832 73.0355 413.845 29.8104 385.321 29.8104C356.797 29.8104 341.785 62.1049 325.271 65.086C308.757 68.067 315.763 39.7472 295.246 39.7472C274.729 39.7472 276.23 69.0607 253.211 69.0607C230.192 69.0607 233.695 41.7345 218.682 39.7472C203.67 37.7598 200.167 69.0607 182.152 69.0607C164.137 69.0607 175.146 45.7092 151.626 45.7092C128.107 45.7092 129.107 73.5323 104.087 75.0228C79.0658 76.5133 82.5687 46.7029 54.5454 39.7472Z" fill="#90AA98"/>
</svg>
